<?xml version="1.0" encoding="UTF-8"?><svg id="Layer_1" xmlns="http://www.w3.org/2000/svg" viewBox="0 0 300 300"><defs><style>.cls-1{fill:#e6e6e6;}.cls-2{fill:#b3b3b3;}.cls-3{fill:#f2f2f2;}</style></defs><g><circle class="cls-1" cx="150" cy="150" r="149.5"/><path class="cls-3" d="M150,1c39.8,0,77.22,15.5,105.36,43.64s43.64,65.56,43.64,105.36-15.5,77.22-43.64,105.36-65.56,43.64-105.36,43.64-77.22-15.5-105.36-43.64S1,189.8,1,150,16.5,72.78,44.64,44.64,110.2,1,150,1m0-1C67.16,0,0,67.16,0,150s67.16,150,150,150,150-67.16,150-150S232.84,0,150,0h0Z"/></g><path class="cls-2" d="M96.42,94.26c13.08,0,25.6-11.5,25-25s-10.98-25-25-25c-13.08,0-25.6,11.5-25,25s10.98,25,25,25h0Z"/><path class="cls-2" d="M87.15,202.87c13.08,0,25.6-11.5,25-25s-10.98-25-25-25c-13.08,0-25.6,11.5-25,25s10.98,25,25,25h0Z"/><path class="cls-2" d="M166.62,260.48c13.08,0,25.6-11.5,25-25s-10.98-25-25-25c-13.08,0-25.6,11.5-25,25s10.98,25,25,25h0Z"/><path class="cls-2" d="M230.85,160.48c13.08,0,25.6-11.5,25-25s-10.98-25-25-25c-13.08,0-25.6,11.5-25,25s10.98,25,25,25h0Z"/><path class="cls-2" d="M167.28,141.28c13.08,0,25.6-11.5,25-25s-10.98-25-25-25c-13.08,0-25.6,11.5-25,25s10.98,25,25,25h0Z"/><path class="cls-2" d="M197.08,82.34c13.08,0,25.6-11.5,25-25s-10.98-25-25-25c-13.08,0-25.6,11.5-25,25s10.98,25,25,25h0Z"/><path class="cls-2" d="M138.8,30.62c7.85,0,15.36-6.9,15-15s-6.59-15-15-15c-7.85,0-15.36,6.9-15,15s6.59,15,15,15h0Z"/><path class="cls-2" d="M32.84,121.34c7.85,0,15.36-6.9,15-15s-6.59-15-15-15c-7.85,0-15.36,6.9-15,15s6.59,15,15,15h0Z"/><path class="cls-2" d="M48.07,242.54c7.85,0,15.36-6.9,15-15s-6.59-15-15-15c-7.85,0-15.36,6.9-15,15s6.59,15,15,15h0Z"/><path class="cls-2" d="M156.02,298.17c7.85,0,15.36-6.9,15-15s-6.59-15-15-15c-7.85,0-15.36,6.9-15,15s6.59,15,15,15h0Z"/><path class="cls-2" d="M223.57,215.38c7.85,0,15.36-6.9,15-15s-6.59-15-15-15c-7.85,0-15.36,6.9-15,15s6.59,15,15,15h0Z"/><path class="cls-2" d="M281.85,165.72c7.85,0,15.36-6.9,15-15s-6.59-15-15-15c-7.85,0-15.36,6.9-15,15s6.59,15,15,15h0Z"/><path class="cls-2" d="M250.72,91.54c7.85,0,15.36-6.9,15-15s-6.59-15-15-15c-7.85,0-15.36,6.9-15,15s6.59,15,15,15h0Z"/><path class="cls-2" d="M18.93,166.31c6.43,0,6.45-10,0-10s-6.45,10,0,10h0Z"/><path class="cls-2" d="M109,282.21c6.43,0,6.45-10,0-10s-6.45,10,0,10h0Z"/><path class="cls-2" d="M261.32,235.19c6.43,0,6.45-10,0-10s-6.45,10,0,10h0Z"/><path class="cls-2" d="M156.68,178.23c6.43,0,6.45-10,0-10s-6.45,10,0,10h0Z"/><path class="cls-2" d="M97.74,241.81c6.43,0,6.45-10,0-10s-6.45,10,0,10h0Z"/><path class="cls-2" d="M144.1,51.74c6.43,0,6.45-10,0-10s-6.45,10,0,10h0Z"/><path class="cls-2" d="M69.26,35.85c6.43,0,6.45-10,0-10s-6.45,10,0,10h0Z"/><path class="cls-2" d="M218.93,31.21c6.43,0,6.45-10,0-10s-6.45,10,0,10h0Z"/><path class="cls-2" d="M284.5,117.97c6.43,0,6.45-10,0-10s-6.45,10,0,10h0Z"/><path class="cls-2" d="M215.62,280.22c6.43,0,6.45-10,0-10s-6.45,10,0,10h0Z"/><path class="cls-2" d="M81.85,115.98c6.43,0,6.45-10,0-10s-6.45,10,0,10h0Z"/></svg>