<?xml version="1.0" encoding="UTF-8"?><svg id="Layer_1" xmlns="http://www.w3.org/2000/svg" viewBox="0 0 300 300"><defs><style>.cls-1{fill:#e6e6e6;}.cls-2{fill:#b3b3b3;}.cls-3{fill:#f2f2f2;}</style></defs><g><circle class="cls-1" cx="150" cy="150" r="149.5"/><path class="cls-3" d="M150,1c39.8,0,77.22,15.5,105.36,43.64s43.64,65.56,43.64,105.36-15.5,77.22-43.64,105.36-65.56,43.64-105.36,43.64-77.22-15.5-105.36-43.64S1,189.8,1,150,16.5,72.78,44.64,44.64,110.2,1,150,1m0-1C67.16,0,0,67.16,0,150s67.16,150,150,150,150-67.16,150-150S232.84,0,150,0h0Z"/></g><path class="cls-2" d="M79.42,138.26c13.08,0,25.6-11.5,25-25s-10.98-25-25-25c-13.08,0-25.6,11.5-25,25s10.98,25,25,25h0Z"/><path class="cls-2" d="M133.15,202.87c13.08,0,25.6-11.5,25-25s-10.98-25-25-25c-13.08,0-25.6,11.5-25,25s10.98,25,25,25h0Z"/><path class="cls-2" d="M143.62,278.48c13.08,0,25.6-11.5,25-25s-10.98-25-25-25c-13.08,0-25.6,11.5-25,25s10.98,25,25,25h0Z"/><path class="cls-2" d="M236.85,205.48c13.08,0,25.6-11.5,25-25s-10.98-25-25-25c-13.08,0-25.6,11.5-25,25s10.98,25,25,25h0Z"/><path class="cls-2" d="M164.28,138.28c13.08,0,25.6-11.5,25-25s-10.98-25-25-25c-13.08,0-25.6,11.5-25,25s10.98,25,25,25h0Z"/><path class="cls-2" d="M180.08,63.34c13.08,0,25.6-11.5,25-25s-10.98-25-25-25c-13.08,0-25.6,11.5-25,25s10.98,25,25,25h0Z"/><path class="cls-2" d="M108.8,41.62c7.85,0,15.36-6.9,15-15s-6.59-15-15-15c-7.85,0-15.36,6.9-15,15s6.59,15,15,15h0Z"/><path class="cls-2" d="M59.84,82.34c7.85,0,15.36-6.9,15-15s-6.59-15-15-15c-7.85,0-15.36,6.9-15,15s6.59,15,15,15h0Z"/><path class="cls-2" d="M84.07,204.54c7.85,0,15.36-6.9,15-15s-6.59-15-15-15c-7.85,0-15.36,6.9-15,15s6.59,15,15,15h0Z"/><path class="cls-2" d="M199.02,255.17c7.85,0,15.36-6.9,15-15s-6.59-15-15-15c-7.85,0-15.36,6.9-15,15s6.59,15,15,15h0Z"/><path class="cls-2" d="M187.57,186.38c7.85,0,15.36-6.9,15-15s-6.59-15-15-15c-7.85,0-15.36,6.9-15,15s6.59,15,15,15h0Z"/><path class="cls-2" d="M236.85,131.72c7.85,0,15.36-6.9,15-15s-6.59-15-15-15c-7.85,0-15.36,6.9-15,15s6.59,15,15,15h0Z"/><path class="cls-2" d="M250.72,91.54c7.85,0,15.36-6.9,15-15s-6.59-15-15-15c-7.85,0-15.36,6.9-15,15s6.59,15,15,15h0Z"/><path class="cls-2" d="M45.93,163.31c6.43,0,6.45-10,0-10s-6.45,10,0,10h0Z"/><path class="cls-2" d="M89,277.21c6.43,0,6.45-10,0-10s-6.45,10,0,10h0Z"/><path class="cls-2" d="M261.32,235.19c6.43,0,6.45-10,0-10s-6.45,10,0,10h0Z"/><path class="cls-2" d="M143.68,84.23c6.43,0,6.45-10,0-10s-6.45,10,0,10h0Z"/><path class="cls-2" d="M108.74,221.81c6.43,0,6.45-10,0-10s-6.45,10,0,10h0Z"/><path class="cls-2" d="M104.1,68.74c6.43,0,6.45-10,0-10s-6.45,10,0,10h0Z"/><path class="cls-2" d="M21.26,104.85c6.43,0,6.45-10,0-10s-6.45,10,0,10h0Z"/><path class="cls-2" d="M218.93,31.21c6.43,0,6.45-10,0-10s-6.45,10,0,10h0Z"/><path class="cls-2" d="M284.5,117.97c6.43,0,6.45-10,0-10s-6.45,10,0,10h0Z"/><path class="cls-2" d="M215.62,280.22c6.43,0,6.45-10,0-10s-6.45,10,0,10h0Z"/><path class="cls-2" d="M32.85,204.98c6.43,0,6.45-10,0-10s-6.45,10,0,10h0Z"/></svg>