<?xml version="1.0" encoding="UTF-8"?><svg id="Layer_2" xmlns="http://www.w3.org/2000/svg" viewBox="0 0 962.22 132.67"><defs><style>.cls-1{stroke:#bdf1ff;stroke-miterlimit:10;stroke-width:10px;}.cls-1,.cls-2{fill:#71bce1;}.cls-3{fill:#e6e6e6;}.cls-4{fill:#39b54a;}</style></defs><g id="Layer_1-2"><rect class="cls-2" x=".14" y="29.67" width="961" height="40"/><path class="cls-1" d="M1.14,66.67c128.6,30.09,283.3,60.94,480,61,185.11,.06,356.03-30.62,480-58"/></g><g id="Layer_2-2"><path class="cls-4" d="M169.79,62c16.22,0,31.75-14.26,31-31S187.17,0,169.79,0c-16.22,0-31.75,14.26-31,31s13.62,31,31,31h0Z"/><path class="cls-4" d="M390.98,77.89c16.22,0,31.75-14.26,31-31s-13.62-31-31-31c-16.22,0-31.75,14.26-31,31s13.62,31,31,31h0Z"/><path class="cls-4" d="M614.16,68.62c16.22,0,31.75-14.26,31-31s-13.62-31-31-31c-16.22,0-31.75,14.26-31,31s13.62,31,31,31h0Z"/><path class="cls-4" d="M824.09,79.88c16.22,0,31.75-14.26,31-31s-13.62-31-31-31c-16.22,0-31.75,14.26-31,31s13.62,31,31,31h0Z"/><path class="cls-4" d="M575.75,87.83c16.22,0,31.75-14.26,31-31s-13.62-31-31-31c-16.22,0-31.75,14.26-31,31s13.62,31,31,31h0Z"/><path class="cls-4" d="M408.2,105.05c16.22,0,31.75-14.26,31-31s-13.62-31-31-31c-16.22,0-31.75,14.26-31,31s13.62,31,31,31h0Z"/><path class="cls-4" d="M200.91,77.89c16.22,0,31.75-14.26,31-31s-13.62-31-31-31c-16.22,0-31.75,14.26-31,31s13.62,31,31,31h0Z"/><path class="cls-4" d="M777.07,63.32c16.22,0,31.75-14.26,31-31s-13.62-31-31-31c-16.22,0-31.75,14.26-31,31s13.62,31,31,31h0Z"/><path class="cls-4" d="M609.52,91.56c10.2,0,19.97-8.97,19.5-19.5s-8.57-19.5-19.5-19.5c-10.2,0-19.97,8.97-19.5,19.5s8.57,19.5,19.5,19.5h0Z"/><path class="cls-4" d="M586.34,119.37c10.2,0,19.97-8.97,19.5-19.5s-8.57-19.5-19.5-19.5c-10.2,0-19.97,8.97-19.5,19.5s8.57,19.5,19.5,19.5h0Z"/><path class="cls-4" d="M425.42,71.69c10.2,0,19.97-8.97,19.5-19.5s-8.57-19.5-19.5-19.5c-10.2,0-19.97,8.97-19.5,19.5s8.57,19.5,19.5,19.5h0Z"/><path class="cls-4" d="M366.48,97.52c10.2,0,19.97-8.97,19.5-19.5s-8.57-19.5-19.5-19.5c-10.2,0-19.97,8.97-19.5,19.5s8.57,19.5,19.5,19.5h0Z"/><path class="cls-4" d="M234.69,64.41c10.2,0,19.97-8.97,19.5-19.5s-8.57-19.5-19.5-19.5c-10.2,0-19.97,8.97-19.5,19.5s8.57,19.5,19.5,19.5h0Z"/><path class="cls-4" d="M259.19,79.64c10.2,0,19.97-8.97,19.5-19.5s-8.57-19.5-19.5-19.5c-10.2,0-19.97,8.97-19.5,19.5s8.57,19.5,19.5,19.5h0Z"/><path class="cls-4" d="M351.91,67.72c10.2,0,19.97-8.97,19.5-19.5s-8.57-19.5-19.5-19.5c-10.2,0-19.97,8.97-19.5,19.5s8.57,19.5,19.5,19.5h0Z"/><path class="cls-4" d="M354.56,49.18c10.2,0,19.97-8.97,19.5-19.5s-8.57-19.5-19.5-19.5c-10.2,0-19.97,8.97-19.5,19.5s8.57,19.5,19.5,19.5h0Z"/><path class="cls-4" d="M574.42,51.16c10.2,0,19.97-8.97,19.5-19.5s-8.57-19.5-19.5-19.5c-10.2,0-19.97,8.97-19.5,19.5s8.57,19.5,19.5,19.5h0Z"/><path class="cls-4" d="M546.61,61.1c10.2,0,19.97-8.97,19.5-19.5s-8.57-19.5-19.5-19.5c-10.2,0-19.97,8.97-19.5,19.5s8.57,19.5,19.5,19.5h0Z"/><path class="cls-4" d="M527.4,81.63c10.2,0,19.97-8.97,19.5-19.5s-8.57-19.5-19.5-19.5c-10.2,0-19.97,8.97-19.5,19.5s8.57,19.5,19.5,19.5h0Z"/><path class="cls-4" d="M513.5,61.1c10.2,0,19.97-8.97,19.5-19.5s-8.57-19.5-19.5-19.5c-10.2,0-19.97,8.97-19.5,19.5s8.57,19.5,19.5,19.5h0Z"/><path class="cls-4" d="M488.33,66.39c10.2,0,19.97-8.97,19.5-19.5s-8.57-19.5-19.5-19.5c-10.2,0-19.97,8.97-19.5,19.5s8.57,19.5,19.5,19.5h0Z"/><path class="cls-4" d="M449.26,80.3c10.2,0,19.97-8.97,19.5-19.5s-8.57-19.5-19.5-19.5c-10.2,0-19.97,8.97-19.5,19.5s8.57,19.5,19.5,19.5h0Z"/><path class="cls-4" d="M473.76,71.03c10.2,0,19.97-8.97,19.5-19.5s-8.57-19.5-19.5-19.5c-10.2,0-19.97,8.97-19.5,19.5s8.57,19.5,19.5,19.5h0Z"/><path class="cls-4" d="M434.69,49.84c10.2,0,19.97-8.97,19.5-19.5s-8.57-19.5-19.5-19.5c-10.2,0-19.97,8.97-19.5,19.5s8.57,19.5,19.5,19.5h0Z"/><path class="cls-4" d="M461.84,50.5c10.2,0,19.97-8.97,19.5-19.5s-8.57-19.5-19.5-19.5c-10.2,0-19.97,8.97-19.5,19.5s8.57,19.5,19.5,19.5h0Z"/><path class="cls-4" d="M408.86,39.24c10.2,0,19.97-8.97,19.5-19.5S419.79,.24,408.86,.24c-10.2,0-19.97,8.97-19.5,19.5s8.57,19.5,19.5,19.5h0Z"/><path class="cls-4" d="M499.59,43.22c10.2,0,19.97-8.97,19.5-19.5s-8.57-19.5-19.5-19.5c-10.2,0-19.97,8.97-19.5,19.5s8.57,19.5,19.5,19.5h0Z"/><path class="cls-4" d="M538.66,45.86c10.2,0,19.97-8.97,19.5-19.5s-8.57-19.5-19.5-19.5c-10.2,0-19.97,8.97-19.5,19.5s8.57,19.5,19.5,19.5h0Z"/><path class="cls-4" d="M65.15,52.49c10.2,0,19.97-8.97,19.5-19.5s-8.57-19.5-19.5-19.5c-10.2,0-19.97,8.97-19.5,19.5s8.57,19.5,19.5,19.5h0Z"/><path class="cls-4" d="M85.02,45.61c7.72,0,7.73-12,0-12s-7.73,12,0,12h0Z"/><path class="cls-4" d="M83.03,65.85c16.73,0,16.76-26,0-26s-16.76,26,0,26h0Z"/><path class="cls-4" d="M89.66,71.94c8.36,0,8.38-13,0-13s-8.38,13,0,13h0Z"/><path class="cls-4" d="M859.85,68.71c9.68,0,18.95-8.51,18.5-18.5s-8.13-18.5-18.5-18.5c-9.68,0-18.95,8.51-18.5,18.5s8.13,18.5,18.5,18.5h0Z"/><path class="cls-4" d="M743.3,66.06c9.68,0,18.95-8.51,18.5-18.5s-8.13-18.5-18.5-18.5c-9.68,0-18.95,8.51-18.5,18.5s8.13,18.5,18.5,18.5h0Z"/><path class="cls-4" d="M94.95,54.14c9.68,0,18.95-8.51,18.5-18.5s-8.13-18.5-18.5-18.5c-9.68,0-18.95,8.51-18.5,18.5s8.13,18.5,18.5,18.5h0Z"/><path class="cls-4" d="M108.86,83.27c9.68,0,18.95-8.51,18.5-18.5s-8.13-18.5-18.5-18.5c-9.68,0-18.95,8.51-18.5,18.5s8.13,18.5,18.5,18.5h0Z"/></g><g id="Layer_3"><path class="cls-3" d="M49.65,60.01c13.51,0,13.53-21,0-21s-13.53,21,0,21h0Z"/><path class="cls-3" d="M66.21,66.63c13.51,0,13.53-21,0-21s-13.53,21,0,21h0Z"/><path class="cls-3" d="M62.89,49.42c13.51,0,13.53-21,0-21s-13.53,21,0,21h0Z"/><path class="cls-3" d="M79.45,56.7c13.51,0,13.53-21,0-21s-13.53,21,0,21h0Z"/><path class="cls-3" d="M278.13,54.05c13.51,0,13.53-21,0-21s-13.53,21,0,21h0Z"/><path class="cls-3" d="M294.68,46.77c13.51,0,13.53-21,0-21s-13.53,21,0,21h0Z"/><path class="cls-3" d="M294.68,56.7c13.51,0,13.53-21,0-21s-13.53,21,0,21h0Z"/><path class="cls-3" d="M311.24,59.35c13.51,0,13.53-21,0-21s-13.53,21,0,21h0Z"/><path class="cls-3" d="M697.33,97.76c13.51,0,13.53-21,0-21s-13.53,21,0,21h0Z"/><path class="cls-3" d="M709.25,105.71c13.51,0,13.53-21,0-21s-13.53,21,0,21h0Z"/><path class="cls-3" d="M711.24,94.45c13.51,0,13.53-21,0-21s-13.53,21,0,21h0Z"/><path class="cls-3" d="M721.17,101.73c13.51,0,13.53-21,0-21s-13.53,21,0,21h0Z"/><path class="cls-3" d="M902.63,65.31c13.51,0,13.53-21,0-21s-13.53,21,0,21h0Z"/><path class="cls-3" d="M886.07,63.32c13.51,0,13.53-21,0-21s-13.53,21,0,21h0Z"/><path class="cls-3" d="M886.74,79.22c13.51,0,13.53-21,0-21s-13.53,21,0,21h0Z"/><path class="cls-3" d="M869.52,62.66c13.51,0,13.53-21,0-21s-13.53,21,0,21h0Z"/><path class="cls-3" d="M870.84,73.92c13.51,0,13.53-21,0-21s-13.53,21,0,21h0Z"/><path class="cls-3" d="M579.17,81.85c13.51,0,13.53-21,0-21s-13.53,21,0,21h0Z"/><path class="cls-3" d="M595.72,85.82c13.51,0,13.53-21,0-21s-13.53,21,0,21h0Z"/><path class="cls-3" d="M594.4,71.25c13.51,0,13.53-21,0-21s-13.53,21,0,21h0Z"/><path class="cls-3" d="M612.94,77.87c13.51,0,13.53-21,0-21s-13.53,21,0,21h0Z"/><path class="cls-3" d="M607.64,93.1c13.51,0,13.53-21,0-21s-13.53,21,0,21h0Z"/><path class="cls-3" d="M627.51,86.48c13.51,0,13.53-21,0-21s-13.53,21,0,21h0Z"/><path class="cls-3" d="M620.89,91.12c13.51,0,13.53-21,0-21s-13.53,21,0,21h0Z"/><path class="cls-3" d="M465.15,112.22c13.51,0,13.53-21,0-21s-13.53,21,0,21h0Z"/><path class="cls-3" d="M483.7,105.6c13.51,0,13.53-21,0-21s-13.53,21,0,21h0Z"/><path class="cls-3" d="M471.11,95.67c13.51,0,13.53-21,0-21s-13.53,21,0,21h0Z"/><path class="cls-3" d="M455.22,109.57c13.51,0,13.53-21,0-21s-13.53,21,0,21h0Z"/><path class="cls-3" d="M478.4,118.18c13.51,0,13.53-21,0-21s-13.53,21,0,21h0Z"/><path class="cls-3" d="M492.97,110.9c13.51,0,13.53-21,0-21s-13.53,21,0,21h0Z"/><path class="cls-3" d="M392.32,73.2c13.51,0,13.53-21,0-21s-13.53,21,0,21h0Z"/><path class="cls-3" d="M399.4,54.82c13.51,0,13.53-21,0-21s-13.53,21,0,21h0Z"/><path class="cls-3" d="M383.66,57.88c13.51,0,13.53-21,0-21s-13.53,21,0,21h0Z"/><path class="cls-3" d="M383.84,79c13.51,0,13.53-21,0-21s-13.53,21,0,21h0Z"/><path class="cls-3" d="M405.48,67.05c13.51,0,13.53-21,0-21s-13.53,21,0,21h0Z"/><path class="cls-3" d="M409.46,51.25c13.51,0,13.53-21,0-21s-13.53,21,0,21h0Z"/></g></svg>