<?xml version="1.0" encoding="UTF-8"?><svg xmlns="http://www.w3.org/2000/svg" viewBox="0 0 960 134"><defs><style>.cls-1,.cls-2{fill:#b3b3b3;}.cls-1,.cls-3{stroke:#fff;stroke-miterlimit:10;stroke-width:6px;}.cls-4,.cls-3{fill:#ccc;}</style></defs><g id="Layer_2"><polygon class="cls-4" points="-.28 70.48 -.28 134.05 959.72 134.05 960.22 70.48 -.28 70.48"/></g><g id="Layer_1"><path class="cls-3" d="M960,71c-174-36-340.5-49.5-480-49.39-131.5,.1-335.5,19.89-480.5,49.89"/><g><rect class="cls-2" x="97.13" y="47.04" width="109" height="4.53" transform="translate(-4.79 18.41) rotate(-6.84)"/><path class="cls-1" d="M207.23,40.74c-3.89-.69-9.34-2.13-14.32-5.19-5.94-3.65-8.3-7.83-9.26-9.98-9.18,2.92-20.67,5.75-34.08,7.23-11.95,1.32-22.6,1.25-31.45,.63-.6,2.43-2.03,6.28-5.79,10.48-4.12,4.59-9.29,7.66-13.15,9.53-1.29,.63-2.44,1.12-3.34,1.49"/></g><path class="cls-1" d="M433.91,115.19c-7.99-1.78-19.06-4.98-28.72-10.59-11.53-6.69-15.44-13.53-16.89-17-19.03,3.46-42.12,6.2-68.39,6.28-27.38,.09-51.37-2.72-70.98-6.28-1.87,3.62-5.84,9.26-14.78,15-9.79,6.28-21.41,10.04-29.96,12.19-2.87,.72-5.39,1.27-7.38,1.66"/><path class="cls-1" d="M582,78.69c-2.19-1.08-5.23-3.01-7.88-6.41-3.16-4.05-4.24-8.19-4.64-10.28-5.87,.62-12.4,1.01-19.48,1-6.8-.01-13.09-.4-18.76-1-.51,2.19-1.6,5.6-4.06,9.07-2.69,3.8-5.88,6.07-8.22,7.37-.53,.29-1.02,.54-1.44,.74-.23,.11-.43,.2-.58,.27"/><g><rect class="cls-2" x="329.4" y="24.41" width="109" height="4.53" transform="translate(768.66 33.59) rotate(177.05)"/><path class="cls-1" d="M327.64,27.68c3.72-1.35,8.85-3.69,13.23-7.55,5.23-4.61,6.85-9.13,7.42-11.41,9.54,1.32,21.35,2.15,34.81,1.33,12-.73,22.48-2.61,31.1-4.72,1.01,2.3,3.07,5.85,7.49,9.34,4.84,3.83,10.46,5.97,14.58,7.16,1.38,.4,2.59,.69,3.54,.9"/></g><g><rect class="cls-2" x="616.33" y="30.29" width="109" height="4.53" transform="translate(1338.15 108.34) rotate(-176.3)"/><path class="cls-1" d="M614.84,27.05c3.85-.91,9.21-2.64,14.01-5.97,5.73-3.97,7.86-8.28,8.69-10.47,9.32,2.41,20.95,4.61,34.43,5.35,12,.66,22.63,0,31.44-1.09,.73,2.4,2.37,6.16,6.36,10.15,4.36,4.36,9.7,7.14,13.65,8.8,1.32,.55,2.49,.98,3.42,1.3"/></g><g><rect class="cls-2" x="766.27" y="47.34" width="109" height="4.53" transform="translate(14.29 -110.75) rotate(7.79)"/><path class="cls-1" d="M876.74,55.35c-3.59-1.66-8.5-4.42-12.55-8.64-4.82-5.03-6.06-9.68-6.43-12-9.62,.51-21.45,.34-34.8-1.62-11.89-1.74-22.18-4.5-30.59-7.33-1.2,2.2-3.55,5.57-8.25,8.68-5.14,3.4-10.93,5.07-15.13,5.9-1.41,.28-2.64,.47-3.61,.59"/></g><path class="cls-1" d="M155,96.05c-2.19-1.08-5.23-3.01-7.88-6.41-3.16-4.05-4.24-8.19-4.64-10.28-5.87,.62-12.4,1.01-19.48,1-6.8-.01-13.09-.4-18.76-1-.51,2.19-1.6,5.6-4.06,9.07-2.69,3.8-5.88,6.07-8.22,7.37-.53,.29-1.02,.54-1.44,.74-.23,.11-.43,.2-.58,.27"/><g><rect class="cls-2" x="678.52" y="114.42" width="109" height="4.53" transform="translate(1466.47 230.6) rotate(179.78)"/><path class="cls-1" d="M676.78,115.01c3.78-1.17,9.01-3.26,13.57-6.91,5.45-4.35,7.28-8.79,7.96-11.04,9.46,1.77,21.22,3.17,34.71,2.98,12.02-.16,22.58-1.54,31.29-3.23,.89,2.34,2.79,5.99,7.04,9.69,4.65,4.05,10.16,6.46,14.22,7.85,1.36,.46,2.55,.81,3.5,1.06"/></g></g></svg>