<?xml version="1.0" encoding="UTF-8"?><svg id="Layer_2" xmlns="http://www.w3.org/2000/svg" viewBox="0 0 257.31 266.83"><defs><style>.cls-1{fill:#f7931e;}.cls-2{fill:#ffce00;}.cls-3{fill:#ff0;}</style></defs><g id="Layer_1-2"><path class="cls-1" d="M102.33,53.65c4.82-3.51,12.5-10.07,18.62-20.65,7.91-13.68,8.93-26.69,9-33,.29,7.14,1.71,19.01,8,32,4.83,9.98,10.83,17.1,15.32,21.65"/><path class="cls-1" d="M154.47,54.05c5.96-.23,16-1.4,26.96-6.77,14.19-6.95,22.28-17.19,25.86-22.39-3.74,6.1-9.17,16.74-11.18,31.03-1.55,10.98-.54,20.23,.66,26.51"/><path class="cls-1" d="M195.18,81.1c4.93,3.37,13.69,8.4,25.7,10.61,15.55,2.86,28.14-.55,34.11-2.6-6.63,2.67-17.33,7.99-27.46,18.28-7.78,7.9-12.48,15.94-15.25,21.7"/><path class="cls-1" d="M212.95,129.94c2.1,5.59,6.38,14.73,14.95,23.44,11.08,11.27,23.35,15.71,29.41,17.46-6.96-1.62-18.78-3.41-32.97-.81-10.9,2-19.37,5.88-24.94,9.01"/><path class="cls-1" d="M201.76,177.3c-1.51,5.77-3.3,15.71-1.34,27.77,2.54,15.6,9.99,26.31,13.92,31.24-4.75-5.34-13.36-13.63-26.45-19.71-10.06-4.67-19.21-6.39-25.56-7.06"/><path class="cls-1" d="M153.7,214.16c-4.94,3.35-12.84,9.64-19.32,19.99-8.38,13.4-9.84,26.37-10.13,32.67-.05-7.15-1.06-19.05-6.9-32.26-4.48-10.14-10.23-17.47-14.57-22.16"/><path class="cls-1" d="M95.44,208c-5.93-.64-16.03-.93-27.66,2.79-15.05,4.82-24.54,13.78-28.83,18.41,4.58-5.49,11.5-15.23,15.56-29.08,3.12-10.64,3.47-19.94,3.18-26.33"/><path class="cls-1" d="M58.34,175.33c-4.47-3.95-12.54-10.03-24.18-13.72-15.07-4.77-27.99-2.95-34.16-1.66,6.91-1.83,18.19-5.78,29.52-14.72,8.7-6.87,14.36-14.26,17.83-19.63"/><path class="cls-1" d="M46.78,124.66c-1.39-5.8-4.5-15.41-11.92-25.12-9.6-12.56-21.22-18.49-27.02-20.98,6.71,2.47,18.21,5.72,32.62,4.9,11.07-.63,19.95-3.43,25.87-5.84"/><path class="cls-1" d="M65.62,80.39c1.93-5.65,4.45-15.43,3.39-27.59-1.38-15.75-8.02-26.98-11.58-32.19,4.34,5.68,12.32,14.58,24.92,21.6,9.68,5.4,18.68,7.79,24.97,8.92"/><g><path class="cls-3" d="M129.95,212c-43.56,0-79-35.44-79-79,0-36.06,26.72-64.86,53.12-74.67,10.26-3.81,19.19-4.38,23.6-4.38,.91,0,1.61,.02,2.07,.04,17.39,.71,37.36,9.04,52.12,21.72,12.36,10.63,27.09,29.19,27.09,57.28,0,43.56-35.44,79-79,79Z"/><path class="cls-2" d="M127.68,58.95h0c.84,0,1.47,.02,1.86,.04,16.32,.67,35.12,8.53,49.06,20.52,11.56,9.94,25.35,27.29,25.35,53.49,0,40.8-33.2,74-74,74s-74-33.2-74-74c0-33.78,25.08-60.78,49.86-69.98,9.52-3.54,17.79-4.07,21.86-4.07m0-10c-4.62,0-14.19,.55-25.35,4.69-29.2,10.85-56.38,41.61-56.38,79.35,0,46.39,37.61,84,84,84s84-37.61,84-84c0-52.31-48.88-82.56-84-84-.5-.02-1.27-.05-2.27-.05h0Z"/></g></g></svg>